<svg xmlns="http://www.w3.org/2000/svg" viewBox="0 0 1100 1100" style="enable-background:new 0 0 1100 1100" xml:space="preserve"><style>.st1{fill:url(#SVGID_00000128485180699041482820000001027459992957734313_)}</style><g id="Layer_46"><linearGradient id="SVGID_1_" gradientUnits="userSpaceOnUse" x1="50" y1="554" x2="1050" y2="554"><stop offset="0" style="stop-color:#fff"/><stop offset="1" style="stop-color:#000"/></linearGradient><circle cx="550" cy="553.7" r="500" style="fill:url(#SVGID_1_);stroke:#000;stroke-width:10;stroke-linecap:round;stroke-linejoin:round;stroke-miterlimit:10"/></g><linearGradient id="a" gradientUnits="userSpaceOnUse" x1="432" y1="734" x2="789" y2="110" gradientTransform="matrix(1 0 0 -1 0 1100)"><stop offset="0" style="stop-color:#5900ff"/><stop offset="1" style="stop-color:#f06"/></linearGradient><path style="fill:url(#a)" d="M302.5 412.2c13 30 55 19.5 61-10.5 3-13-.8-27-2-40.7-3-33 15-45 47-40.6 56 8 63-33 100.6-58.7 58-39.6 78 46 81 54 9.2 24.5 35.5 23 44-.7 26-71 94-32.5 93.5 28 1 13 1 25.5 5 37.6 8 32 68 39.5 59.4 5-1.5-6-17-12-17-12 27 9.1 43 42 33 68-8 21-39.9 43.9-13 70.7 26 26 39.8 54 25 83-55 105 48 98-36.5 188-7 8-12 22-13 29-3 17 20 28 23 17.9 5-18 16-26 16-26-17 19-13 22-22 45-12.5 32-49 12-55 57-8 33-26 40.9-57 34.9-21-.5-40 12.9-60 19-54.5 17-84-17-124-47-49-29-108 16-133-68 0 0 5 18 9.5 20.3 21 11 36-34 20.5-51.5-13-15-39-16-48-34-6-11-3-25-1.9-37.9 2-37-23-56-40.7-84.1-24-47.5 18-100 9-149-19-49-16-105 29-138.6L302.5 412z"/><path d="M302.5 412c13 30 55 19.5 61-10.5 3-13-.8-27-2-40.7-3-33 15-45 47-40.6 56 8 63-33 100.6-59 58-39.6 78 46 81 54 9.2 24.5 35.5 23 44-.7 26-71 94-32.5 93.5 28.4 1 13 1 25.5 5 38 8 32 68 39.5 59.4 5-1.5-6-17-12-17-12 27 9.1 43 42 33 68.2-8 21-39.9 43.9-13 70.7 26 26 39.8 54 25 83-55 105 48 98-36.5 188-7 8-12 22-13 29.3-3 17 20 28 23 17.9 5-18 16-26 16-26-17 19-13 22-22 45-12.5 32-49 12-55 56.6-8 33-26 40.9-57 34.9-21-.5-40 12.9-60 19-54.5 17-84-17-124-47-49-29-108 16-133-68.4 0 0 5 18 9.5 20 21 11 36-34 20.5-51.5-13-15-39-16-48-34-6-11-3-25-1.9-37.9 2-37-23-56-40.7-84-24-47.5 18-100 9-149-19-49-16-105 29-138.6" style="opacity:.6;enable-background:new"/><style>.st27{fill:#00ff90}.st28{fill:none;stroke:#000;stroke-width:10;stroke-linecap:round;stroke-linejoin:round;stroke-miterlimit:10}</style><g id="Layer_23_1_"><path d="M532 209c-68 59.6-71 20-121 36.5-19.6 10.9-14 30-9.7 39.6 11 23-51 9-69 40.3-10 18 0 42-7.5 62-9 19.6-34 35-37 52-43 48-154 7-119.1 70 6 11 32.9-6 39.1 9.1 7 17.5-39 29-21 47 18 5 21 39.9 57 63 14 20 3 51 19.4 69 36 38 46-25 41-34.3 4-39 43.9-11 22 39-23 52 11 74 36.5 57 24-9 13 39 23 50.9 19.5 37 55 12 67 12 18 1 28 22 29.8 40 6.5 63 54 46 59.1 8 15.5-34 45 49 47 59.9 11 73 69.3 42 71 17.9 3-54-3-60 2-68 18.5-31 71 13 90.8-15.5 14-19.7-31-63.5 7.9-55 94 19.4 19-101 14-120.4-9-35.5 13.9-106 46.9-122 18-9 17-35.5 7-53-9.5-16.9-24.9-30.6-31-48.9-13.5-54 22-102-36-133.3-5-3-7-9.5-3.9-14 17-26 1-66-32-71-22-3-44 8.9-66.5 6C615 247 578.5 178 532 209z" style="fill:#037bfc"/><path class="st27" d="M791 443c-67.5 31-55-40-67-56-20.6-27.5-32 18-61-4-22-21 0-40-2-62.3-2.5-26-45-40.8-18-70.8 32 6 165-35.5 109 79 51 10.8 47 73.1 39 113.9zM682 866.9c-12-47.5 13.9-40-13-89-17-30.5 29.5-75.5 47-37 28 59.3 24-22 63.9-38.8 17 26.5 32 61 24 93-33 67-86-61-48 62-6.6 34.9-49.4 10.9-73.9 9.8zM314 643.9c-11-15.9-65-50-81-29.8 48.5 44 0 68 38 90.8 43 12.1 36-47.9 43-61z"/><path class="st28" d="M641 248.9c-25 31 17 45 19.6 71.5 2 22-20 41 2 62 29 22.5 40.7-23 61 4.2 12 16-.5 87 67 56M682 866.9c-12-47.5 13.9-40-13-89-17-30.5 20.8-70 47-37 6.5 8 4 32 25 14.9 16-13 5-47 39-55.2M233 614c15-16 30.8-7 44 7 9.8 10 30 0 36 23.3"/></g><style>.st2{opacity:.6;enable-background:new}.st28,.st38{fill:none;stroke:#000;stroke-width:10;stroke-linecap:round;stroke-linejoin:round;stroke-miterlimit:10}.st38{opacity:.7882;stroke:#fff;enable-background:new}</style><g id="Layer_31"><path class="st2" d="M793 537c-1 .7-1 2-.5 3 5 10 11 35 25 30 8-2 21-13 17.9-22.4-.5-1-2-2-3-1.5C806 558 804.5 535 793 536.7zM759 811.5c6 5 26 8 25-3-5.9-7-20.6-12-21.5-26C750 772 744 803 759 811.5zM539.7 863.5s1 .5 1 .8c9.1 13.5-3 36-18 40-34 6-9.5-6-6-44 .3-5.3 22.3 2.7 23 3.2zM342 731c5 6.9-4 22-4 33 8 13 29.6-5 33-14.9 2-12-17-21-28-20.2-1 .1-1 1.1-1 2.1zM373 610.8c2 23-8 47-26 61.9-13 10.9-17.5-30.6-8-27.9 6 4.4 28-18.8 34-34zM216 550.9c-8 6-17 2.9-25 1-11 5 4 20 13.5 16 5-4 12-9.2 12-15.7-.5-.2-1.5-.2-.5-1.3zM337 473c-6-10-3-23 0-34 0-1 0-2-.6-2-9-9-23 11-19.8 20.7C318 463 338 475 337 472.8z"/><path class="st2" d="M326 392c-2 29 24 45 7 44-7 2-14 1-15 11-1.5 11-24 0-24.5-1.3C285 433 317 404.5 326 392zM429 274c-9.9-4-16-16-18-25-4-5.9-9.9 1-11 6-7 54 29.5 28 29 19zM722 283c16 21 29.5 12 40 20.7 3 4 1 9.6-1 14-3 9-13 8.9-20 4.1-14.5-5.8-22-22.2-19-38.8z"/><path class="st28" d="M347 729c53.5 5 15 86 59 102 25 9 37-19.9 54.9-11.9 23 10 19.8 40 24 60.7 10 45.5 63 29.6 58-12.8"/><path class="st28" d="M519.3 861c89-9.1 47.5 119.3 114.5 115 39-6 35-47 25-76.5-2.9-9 0-18.5 7-24.5 24.5-21 59.3 15.5 84-2.5 15-11 8.5-32.9-2-45-12-15 0-32 10-43.1"/><path class="st28" d="M790 539c53 69.8-64 71 8 194.5 6 14 11 32 11 48.5 0 32-49 47.5-61 15.8"/><path class="st28" d="M721 287c2 51 63.5 31 74 88 6 34-12 71 7 103 10 18 27 31.5 34 51 8 19-4 47-27 42.3"/><path class="st28" d="M407 290.6c-16-8-12-29.9-2-41 17-15 40.5-10 61-6 29.8 1 48.9-29.4 75-38 50-17 80.5 54.5 133 44 23-5 48-10.5 69 1 25 14 33 55 10 75"/><path class="st28" d="M428 278c-16 26.5-51 17.5-76 28.5-20 10.5-28 33-23 55 10 47-43 51-39 87.6M315 454c1.5-23 35-26 41-5 7 25-13 47 16 72.4"/><path class="st28" d="M334 476c-20-34-61-31.5-89-9.6-20 8-43-3-64 4-22 7-28 37.5-5 43.5 6.5 2 23-2 26-1 15 4 11 25-5 30-21 6-10 29 6 29"/><path class="st28" d="M216 554.5c-15 15-14 41 2 55 37 22 41 31 36 69.7-2 31 46 41 53.5 10 2-10.8-4.5-22 0-33 12-32.5 44 20 62-44.5"/><path class="st28" d="M327 647.9c25 29.7-.5 47-7 75-10 32.5 34 65 53 24.7"/><path class="st38" d="M729 262.5c9.2 4 16 13 18 22.5M554 217c12.5 2 24.5 8 34 16.4M597.1 241.8l3.3 2.9M437 255c-5.5-.9-12 .6-15.5 3.7M362 319.6c-9.2 1.9-14 10.7-16 19.1M339 449c4 1 6 6 6 9.8M308.5 470c-12-6-16-5-22-4.1M175 492c1-4 5-7 9-7.5M222 574c-4 8 0 16 4 19.9M270 672.5c-1 6 1 15 9 17.7M355 613c-3 14-13 14.5-16 16M343.5 748.5c-5-3-8.9-9-8-15.1M397 782c-1 14.5 7 28 14 30.3M501 865.9c-3 12 2 27 14.5 25.2M636 957c14-3 17-28 11-37.9M743 858.9c1-7 0-14-4-19.3M785 790.8c8-6.5 9-25 3-39.1M786 582c5-8 3-19-3-26.2M820 544c2-8.5-.6-18-6.9-24.3M757 351c18 6 22 30 21 34.7"/></g><style>.st51{fill:none;stroke:#fff;stroke-width:10;stroke-linecap:round;stroke-linejoin:round;stroke-miterlimit:10}</style><g id="Layer_21"><linearGradient id="SVGID_00000139984997478615951940000003817132924144543360_" gradientUnits="userSpaceOnUse" x1="242" y1="576" x2="318" y2="526" gradientTransform="matrix(1 0 0 -1 0 1100)"><stop offset="0" style="stop-color:#0f4"/><stop offset=".298" style="stop-color:#00e97f"/><stop offset=".781" style="stop-color:#00c8db"/><stop offset="1" style="stop-color:#0bf"/></linearGradient><path style="fill:url(#SVGID_00000139984997478615951940000003817132924144543360_)" d="M279.1 499.3c-8 19.6-17 39-25 59 19.2 9.7 33 28 41 48 1-26 10.9-46 29-65C309 526 296 516 279.1 499z"/><path d="M275.5 512c36 25 1 53 19 84 14-76 63.5-25-16-93.5" style="opacity:.4902;fill:#fff;enable-background:new"/><path d="M279.1 499c-8 19.6-17 39-25 59 19.2 9.7 33 28 41 48 1-26 10.9-46 29-65-15.1-15-28.1-25-45-42z" style="fill:none;stroke:#000;stroke-width:10;stroke-linecap:round;stroke-linejoin:round;stroke-miterlimit:10"/><path d="M274 498.5C264 519 255 540 248 562c21 7 34 27 45 45.5" style="opacity:.6;fill:none;stroke:#000;stroke-width:10;stroke-linecap:round;stroke-linejoin:round;stroke-miterlimit:10;enable-background:new"/><path class="st51" d="M283 523c4.5 4 9 9 13 13.4M306 546c-.8-.6-2-1-2-1.7"/></g><style>.st28,.st51{fill:none;stroke:#000;stroke-width:10;stroke-linecap:round;stroke-linejoin:round;stroke-miterlimit:10}.st51{stroke:#fff}.st87{fill:#ae0f45}</style><g id="Layer_30_00000109733748390977798870000004641650668196425368_"><path d="M436 675c-22 21-11 48 18 57 29.7 9.1 14.5 58 38.5 75 48 17 33-29.7 51-32.5 18.5-3 9 36 40 57 29.6 19.6 75 1 78-35 4-55 36-12 52-35.5" style="opacity:.6;fill:none;stroke:#000;stroke-width:10;stroke-linecap:round;stroke-miterlimit:10"/><path d="M584 706c7 8 13 18 21 26 97-19.1 94 22 113.5 24 30-7 34-98-17-91-41 5-76 35-116 39.6-.5.4-.5 1.4-1.5 1.4z"/><path d="M715 756c-4 14-34 2-46 5-18 4-5.5 116-91 56-13-9-17-53.5-36-48.9-13 6.5-7 30.7-28 35.5-42.5 9.7-19-75-75-85.9-17.5-3-7-33 5-44 40.6-21 39.9 31 135 32.3 12 4 18 17 26 26 73-20 110 21 110 23.7z" style="fill:#fe1767"/><path class="st87" d="M435 696c41.5-24 78 29.5 119.8 29 14 0 30.8-6.5 44 2-10-23-15.5-20-37-18.7-30-2-56-20-82-34C462 665 433 673 435 695.6zM617 755c1-18 38-25 55-24-17-5-51.9-5-65 4.6l10 19.1z"/><path class="st28" d="M464 669.5c-28 0-47 36-19.8 50.6 6 3 12 3 18 6 29.9 16.5 7.5 76 47.5 78.6 9.7 1 19-7 21-17 1-6 0-13 4-17.5 6-7 17.9-3.5 23 3.9 5 7 6 17 9.2 25.5 11 39 74 49.5 87 5.9 4.9-16-6-56 34.9-44 67 19.7 78-117-5-93-69.9 20-111 65-186 15.5-9.8-6.5-19.8-14.5-33.8-14.5z"/><path class="st28" d="M582 707c14 13 25 29 32 46.8"/><path class="st51" d="M579.9 726c6 7 11 15 14 23.3M599.6 763.9l2.2 4.4M654 740c8.9 0 18 2 26 6M640.5 738.5c-1 0-2.9 0-4 .1"/><path class="st28" d="M606 733c37-17 86-8 112 24.4"/></g><linearGradient id="a" gradientUnits="userSpaceOnUse" x1="590" y1="26" x2="771" y2="26" gradientTransform="translate(0 310)"><stop offset="0" style="stop-color:#f05"/><stop offset="1" style="stop-color:#fa0"/></linearGradient><path style="fill:url(#a);stroke:#000;stroke-width:10;stroke-linecap:round;stroke-linejoin:round;stroke-miterlimit:10" d="M619.5 57.5c4 17 16 32 14 49.7-3 21-31 27-33 5-18 36 26 48 32 78 4 36-39 34-33 8.7-13 28-12 64 5 89.6 9.8 15 21.5 29 25 46.9 8 31.9-32 31.5-28 1-36 69.3 71 152 33 173.2-13 2-18-23-30-19 15 24 5 49 7 75 3 41 62 56 98 48 65-15 71-89.3 56-140.4 2 17-15 24-22 8-3-7-.5-14 1-21 9-35 17-71 10-106-1 9.6-19 32.9-26 17.2-9.8-41 32-71 7-142-3 10.6-10 20-20 24-18 8-21-32-15-50.9 12-37 35-75 36.9-114.9"/><linearGradient id="b" gradientUnits="userSpaceOnUse" x1="375" y1="29" x2="592" y2="29" gradientTransform="translate(0 310)"><stop offset="0" style="stop-color:#f05"/><stop offset="1" style="stop-color:#fa0"/></linearGradient><path style="fill:url(#b);stroke:#000;stroke-width:10;stroke-linecap:round;stroke-linejoin:round;stroke-miterlimit:10" d="M559.1 50c8 29-35 46-38 73-4 36 49 41 53 5 31.5 115-73 176-32 207.9 15 12 25-11 22-19 31 51.9-25 105-21 156 2 27.5 31 13 30.8-10.6 95 209.9-200 209-155 65 4-25-2-52-16-73 8 6 24 12 29.6 0 4-16-25-37.9-19.5-76 4-29.6 27.5-60 14-90.1 5 4 7 9.9 10 15 20 24 29.9-11 12-26.5-48-30.5-96-79-59.8-138-.5 36 55 29 42-4.7-9-23-34-25-33.5-58 9.9-6 21-8 32-11"/><path d="M381 162c12 22 52 13 55.9-13-6 17-46 16-49.6-3M432 317.5c9 8 25-1.5 28-11.5-9.4 9-22 3.9-28-5.9M415 471c12.5 3 26-9.7 20-22 0 13.5-17 13-26 9.5M529.7 149c12 13 32 19.1 49 14-3-7-2-15-2.5-22-25.2 15-19.2 11-46.5 7.8zm5.3 186c7 10 26.5 19.1 36.5 9-.7-5-2-9.5-4-14-5 6.5-14 10-21.5 5.1M583 492c-10 9-29.7 6-38-4 13 2 24-4 31.5-14.5v.8m36 39.7c8.5 6 23 5 27-5.5-11 4-21-7-29.5-13.6M739 483c3 12 17 22 29.2 20 .8 0 1-1 1-2-.6-5 1-12-3-15.5-3 1-18 9-27.5-3.5.3 0 .3 1 .3.6zm-11.5-106c9 7 25 5.5 30-5-1-3 0-8-.7-10.8M597 369.6c10 8 26.5 0 31-10.9-10 4-23-1-31-8.2l1 1.1m143-81c-17 4-35-9-42.9-23 20 9.2 25 2.5 37-12.7M590 228c14 8 35 1 39-14.9-11 7-24 5-34-2.7m3-74.4c13.5 12 37-1 35.9-19-8 9.7-25 9-35 2.7" style="opacity:.6;enable-background:new"/><path d="M409 569.5c12 49.6 66.5 75 114 63 23-4.5 50.8-23 57-45.9m27-17.6c13 63 124 72 148 14.2" style="opacity:.6;stroke:#000;enable-background:new;fill:none;stroke-width:10;stroke-linecap:round;stroke-linejoin:round;stroke-miterlimit:10"/><path d="M718 94c-3 29-13.5 59-27 84.9m-6 14.1c-1 1.5-1 3-2 4.6m46 76.9c-1 15.9-4.5 32-9.8 46.6M714 335c-.5 2-1 3-1.5 4.9m28.5 50.9c-1 14.9-4 29.6-8 43.8m-3 14.1-1 4.3m25 86c-4 25-22 50.9-48 55.8m-18 1.6h-4.3M573 518c4 28-1 59.7-25 76.7m-14.5 8.3c-1 .5-3 .9-4 1.4m26-242.4c-2 15-9 29-16 42.7M535 419c0 1.5-1 3-2 4.4m30-241.9c-4 21-11 42-21.5 61.1m-7.5 15-1.5 3.6m10-198.2c-4 7.5-9.8 14-16 19.9" style="stroke:#fff;fill:none;stroke-width:10;stroke-linecap:round;stroke-linejoin:round;stroke-miterlimit:10"/><style>.st2{opacity:.6;enable-background:new}.st28{stroke:#000}.st28,.st50,.st51{fill:none;stroke-width:10;stroke-linecap:round;stroke-linejoin:round;stroke-miterlimit:10}.st50{opacity:.6;stroke:#000;enable-background:new}.st51{stroke:#fff}</style><g id="Layer_19_00000163758903877141444980000000498738060173084291_"><linearGradient id="SVGID_00000181046708756781064120000004379447571776718213_" gradientUnits="userSpaceOnUse" x1="35" y1="979" x2="985" y2="125" gradientTransform="matrix(1 0 0 -1 0 1100)"><stop offset="0" style="stop-color:#80f"/><stop offset=".095" style="stop-color:#8c00fe"/><stop offset=".184" style="stop-color:#9700fa"/><stop offset=".27" style="stop-color:#aa00f3"/><stop offset=".354" style="stop-color:#c400ea"/><stop offset=".437" style="stop-color:#e600de"/><stop offset=".488" style="stop-color:#ff00d5"/><stop offset="1" style="stop-color:#ff002b"/></linearGradient><path style="fill:url(#SVGID_00000181046708756781064120000004379447571776718213_)" d="M243 300c2 45-56 49.8-65 86.4-5 19 27 59-36 85-38 2.5-63 83-13 81.9 27-7-46 28.5 9.2 119.7 17 28-8 68-39.8 85.8C256 1131 814 1144 994 782c-105.9-83-3-102.9-29-159-19.7-44-40-18-40.5-35.3 25-32 100-72 53.9-118-24-23-38 59.6-66 10.6-22-38 36.9-89 18-126-10.8-13-42-32-53-9.9-23 3 18-115-43-145-61 13-33 74-110-50-17.9-28.9-62 12-150-76-31-13.5-131 11.5-92 58-217-17-110 53.9-190 93.5-44 13-104 21-97 81.5 4 32 41 18 156 38 22 4 13-25 44-28.2 76 18 95-63 138-67 50.6-2 47 58 72 79 29 16 31-31 50-42 68-41.5 74 68 81 101 11 24 46 28 62 6 39 37.9-4 61.9-10 98 0 18 17.5 30 28 45 42 59-29 81-5.5 139.8 11 27 22 70.9-11 87-73 82 26 56-22 99.8-15 9.9-36.5 13.5-44 32.5-12.5 53-24 45.5-73 45-108 54.5-104 9.9-188-34.9-34-11-86 1.9-104.5-37 24 3.5 33.9-41 20.6-55-69-34-49.8-40-52.5-82.6-4.9-76.5-73-44-32-170 20-63-25.5-80 .8-148 12 34 57 12 59.8-16.9 1.9-19-6-39 2-57.5L243 300z"/><linearGradient id="SVGID_00000044149201375906986500000003710503096223127442_" gradientUnits="userSpaceOnUse" x1="862" y1="299" x2="992" y2="299" gradientTransform="matrix(1 0 0 -1 0 1100)"><stop offset="0" style="stop-color:#00ff73"/><stop offset="1" style="stop-color:#008cff"/></linearGradient><path style="fill:url(#SVGID_00000044149201375906986500000003710503096223127442_)" d="M947 719.5c-16-1-30-8-43.5 6-34 35 22 43.5 25 71 1 9-5 20.9-15 19-10-2-16-42-47.5-7-18 47.5 49.6 36 52 74.7 2 17 73.5-96 75-107-23.5-10.2-42-31.2-46-56.7z"/><linearGradient id="SVGID_00000012465710472766629600000000893364859715732664_" gradientUnits="userSpaceOnUse" x1="100" y1="287" x2="309" y2="287" gradientTransform="matrix(1 0 0 -1 0 1100)"><stop offset="0" style="stop-color:#00ff73"/><stop offset="1" style="stop-color:#008cff"/></linearGradient><path style="fill:url(#SVGID_00000012465710472766629600000000893364859715732664_)" d="M100 756.2c28 72 76 136 137 183-12-66 53-30 69-71.9 17-37.9-40-92-54-41-3 36-35 44-57 16.8-34-62 64.9-12 43.5-61.5-31 3-89-3.9-32-45 53-12 21.9-54 0-52-24 2-42.5 27-69.1 10.1C136 721 115 735 100 756z"/><linearGradient id="SVGID_00000018212356642991985650000001070720810447512212_" gradientUnits="userSpaceOnUse" x1="160" y1="670" x2="238" y2="670" gradientTransform="matrix(1 0 0 -1 0 1100)"><stop offset="0" style="stop-color:#00ff73"/><stop offset="1" style="stop-color:#008cff"/></linearGradient><path style="fill:url(#SVGID_00000018212356642991985650000001070720810447512212_)" d="M221 345.9c-19.4 8.9-43 23-43 47 18 66-23 62-16 74 6 9.5 12 27 16.5 37 36 33 36-24.5 22-49.4C255 395 239.5 361 221 345.9z"/><linearGradient id="SVGID_00000005247781422001818600000013942651669719476887_" gradientUnits="userSpaceOnUse" x1="529" y1="857" x2="704" y2="857" gradientTransform="matrix(1 0 0 -1 0 1100)"><stop offset="0" style="stop-color:#00ff73"/><stop offset="1" style="stop-color:#008cff"/></linearGradient><path style="fill:url(#SVGID_00000005247781422001818600000013942651669719476887_)" d="M536.5 249.7c36.5-2 43 41 57 67 36 66 52-78 111-31.5 1-7-.8-15-6-20-28-19.8 5-47 0-74.5-5.5-34.5-82-80.9-50 41 0 16-21 46-37 29-5.9-17.5 34.9-57 3-64.5-8-1-18 1.5-22 9.1 18 64-32 37-15 4 20.9-41-43-59-48-16 1 19.2 17.5 36.3 7 56.4z"/><linearGradient id="SVGID_00000028305311612173288670000000568409135496553362_" gradientUnits="userSpaceOnUse" x1="843" y1="693" x2="934" y2="693" gradientTransform="matrix(1 0 0 -1 0 1100)"><stop offset="0" style="stop-color:#00ff73"/><stop offset="1" style="stop-color:#008cff"/></linearGradient><path style="fill:url(#SVGID_00000028305311612173288670000000568409135496553362_)" d="M867 313.1c-39.4 16 1 47-23.5 123.9 3 16 17 14 26 3 8-9.5 39-11 4 36-8 21 28 33 37 13.4-3-44 19-81 23-107.5 6-37-28.9-61-60-39C873 333 871 323 867 313z"/><path class="st50" d="M894 741c-17 35 40 32 25 65-7 5-13-14.9-29-17-22.9-3-42 24-33.5 45.4 8 27 56 15 54 57.9M230 726c-2 12-16 16-25 21.5-9 4-15 16.5-9.2 23.5 13.5 9.8 36-8 49 8.6 12.5 16-7 37-25 33-55-14-15 53 16 37.5 16.9-13 9-57 48.9-47 32 14 44 77 6 89.5-29 5-55 12-48 48.2M153 468.9c17 6 13.5 29.4 23 42 10 14 33 10 39-6 8-22.5-15.9-39-2.5-58.3 9.8-14 63.9-56 15-103.5M841 444c3 13 21 12 29 2.5 10-13 24.5 1.5 4.5 17-30 24 20 65 42 30.5"/><path class="st51" d="M878 814.5c-3 7 1 14 7 18.1M897 839.3l3 1.4M923 731c-5.5 2-10 6-13 10.7M907 752c0 1 1 2 1 3.6M288 834c6 9.8 6 22 1 32.6M279.5 824c-1 0-2-.9-3-1.3M224 798c3 0 5-1 7-3.1M221 706c2 5 1 12-2 16.8M212 697c-.7 0-1-.5-2-.8M228 385c1 6.5-1 13-5 18.6M215 413.5c-1 .9-1 2-2 2.6M196 482c3 5 4 11 2 16.4M544 194.9c0-5 4-10 9-11.7M564 184c1 0 1.5 1 2 1M611.5 207c2 2 2.5 5 2 7.2M677 173c6 6 9 14.5 8 22.7M683 209c0 1-1 3-1 4.2M854 432c0-5 2-9.7 4-13.8M899.7 485.9c-3 3-9 4-13 1.9"/><path class="st28" d="M304 411c13 30 55 19.5 61-10.5 3-13-.8-27-2-40.7-3-33 15-45 47-40.6 56 8 63-33 100.6-59 58-39.6 78 46 81 54 9.2 24.5 35.5 23 44-.7 26-71 94-32.5 93.5 28.4 1 13 1 25.5 5 38 8 32 68 39.5 59.4 5-1.5-6-17-12-17-12 27 9.1 43 42 33 68.2-8 21-39.9 43.9-13 70.7 26 26 39.8 54 25 83-55 105 48 98-36.5 188-7 8-12 22-13 29.3-3 17 20 28 23 17.9 5-18 16-26 16-26-17 19-13 22-22 45-12.5 32-49 12-55 56.6-8 33-26 40.9-57 34.9-21-.5-40 12.9-60 19-54.5 17-84-17-124-47-49-29-108 16-133-68.4 10 52 53-1 30-31-33-28-59-14.9-50-72 3-37-23-56-40.7-84-24-47.5 18-100 9-149.3-19-49-16-105 29-138.6"/><path class="st28" d="M992 778.5c-83-49.9-26-111-22-126 10.5-57-71.9-89.6-43-17.2-30.8-73 59-65 64-133.5 2-30.9-29.6-52-43-16-4 10.7-22 14-29.4 5.5-34-37 28-86 14.9-129.9-18-46.5-87-28-41 16-50-46 7-130.5-48-171-36-26-48.5 49-84 2-43-57-18-72-102-77.8-36-2.5-49.5-31-74-51.5-34.5-29-147 14-103 48 9.7 7.5 48-6 48-6-56 24.5-127.5-10.9-182 24-34 22-6 52-50 77-24 14-50 5-80 27-62 51 17 125 26 52-4 60.5-87 54-61 114.1 9 20-11 47-31 53-88 24-40.5 121-13 75 3-4.5 1-23 1-23 4 24-9 45-19.6 65.6-31 59.4 72 90-21 171C257 1138 824.5 1142 992 778.5z"/><path class="st2" d="M895 377c-9.8-10.9-6.9-32.5 4-42-11-5-25 6-25.5 18M930 636c1-14 10.8-28 24-33-11-5-25-12.9-35-2.6M809.4 800c-11 9-25 18.5-39.7 13 6.5 1.5 5 16 22 19.3M361 842c10 7 24.5 5 33-4-2 12.5-11 26.9-25 28.7M136.5 518c-5 11.5-20 22-33 18 6 15 26.5 24 38 10.1M338 369c-11 18-22 41-9.7 60.9-15-.9-26.5-17-22-31.7M242 297c-9.5 12-27 21-43 15.9 8 12 26 22 39.3 11.8M529.6 116.9c-20 3-40-4-53-21-7 13 0 31 14 35.8M773 374.5c7 9 8 22 3 32 12.5-2 23.9-16 17-28v1.1"/><path class="st51" d="M910 356.9c8 6 11 18 8 27.5M915 397c0 1.5-.5 3-1 4.5M973 489c4 10 3 22-3 31M964 532c-1 .8-2 2-3 2.4M947 617c6 6 9 15 8 23.5M954 651c0 .8-1 2-1 2.5M834 217c10 6.5 17.5 17.5 19.4 29.4M855 261.9c1 2 1 4 .5 6.3M693.5 148c9.3 3 17.5 9.3 23 17.4M537 85c-15 .9-29.7 6-42 14.7M551 82.8l6.5-.2M385 146c-14 2-28 9.7-36.5 21.4M402 144c1 0 2.5 0 4 .3M222 263c-9.7 9.9-14 24.5-12 38.2M236 254.5l2.9-1.5M207 373c-8 5-14 14-15.5 23.8M126 494.5c-8 8-13 20-12 32M139 587c-7 11-11 25-5 37.3M141.5 639c1 2 1 4 2 6.1M373 818c6 5 9 14 7 21.3M362 812c-1-.9-2-2-3-2.1M449.4 916.5c12 0 25 6 34 10.9M497 937c1 1 2 2 4 3.4M684 956c-9-2-18-1-26 2.5M760 886.9c-8 5-11 14-13 21.9M796 793c-5 6-8 12.5-9.2 19.7M803 782c1-1 2-2 3-2.6M829.9 614c-5 13-11 27.5-8 41.7M825 669.9l1 4.5M807 474c-6 8-5 19.3 1 27.3M815 510.5c1 1 2 2 2 3.5M746 366c2 11.5 11 22 22 25M744 350.9l-.7-3.6M612 320c5-1 10-4.5 12-9.4M629 299.6c.5-1 1-2 1.5-3.2M471 276c-9 11-20 20.6-33.5 26.6M425.5 305.6l-5-.1M352 389c-1 10-7.5 19.5-16 24.2M351 367c.5 3 1 5 1 7.8M288 499.5c3 10 4 21 2 31.2M288 544.9c-1 2-1 3-2 4.9M305 689.7c9 8 15 18 18 29.5"/><path class="st28" d="M917 888c11.9-51-78-25-50.5-81.5 5.9-12 24-17 33.9-7 5 5 8 14 16 15.2 7 1 12-7 13-14 1-29.8-23-26-34-43-10.9-17 12.5-43.5 31.5-41 7 1 14 5 19.5 1.3M141 688c3 11.5 18 17 29.2 13 16-8 29.7-22 49.5-12 19.2 9.6 20 39.8 0 47.7-53 6-36.5 60-6 45 30.8-15 44 22 12 28-10 .9-21.9-6-30.6-.6-28 18 19 59.4 42 48.5 16-7 12.9-29 21-42 17-26 53 11 52 35 1 17.5-10.5 38-28 39-31 2-56 19.9-44 51.6M535 248c25-19.7-36-65 17-80.5 13-4 29 8 29.6 21.9 1 16-18 37-3 50.2 9.8 9 26-2.5 21-14.9-2-6-8-10-7-16 1.9-13 21-18.5 29-8.9 17 20-24 45-9 62.2 10 11.5 26-4 31-15 16-39.8-12-51.9-6-76 10-38 91.5-11 50 62.9-13 33 25.5 31 16 48.4M868 311c-41 15-11 61-12 78-2 19-26 49-8.5 57 19 8 19.8-8 30-12.5 9-4 14 5 14 12 0 26-27 21-16 46 7 17 36 13 39-5.3M160 466c14 6 9.1 27 17 38 19.6 26 48 0 26-33-24-38 80-53 16.5-126"/></g><circle cx="550" cy="550" r="500" style="fill:none;stroke:#000;stroke-width:10;stroke-linecap:round;stroke-linejoin:round;stroke-miterlimit:10"/></svg>