<svg xmlns="http://www.w3.org/2000/svg" viewBox="0 0 1100 1100" style="enable-background:new 0 0 1100 1100" xml:space="preserve"><style>.st1{fill:url(#SVGID_00000128485180699041482820000001027459992957734313_)}</style><g id="Layer_46"><linearGradient id="SVGID_1_" gradientUnits="userSpaceOnUse" x1="50" y1="554" x2="1050" y2="554"><stop offset="0" style="stop-color:#fff"/><stop offset="1" style="stop-color:#000"/></linearGradient><circle cx="550" cy="553.7" r="500" style="fill:url(#SVGID_1_);stroke:#000;stroke-width:10;stroke-linecap:round;stroke-linejoin:round;stroke-miterlimit:10"/></g><linearGradient id="a" gradientUnits="userSpaceOnUse" x1="432" y1="734" x2="789" y2="110" gradientTransform="matrix(1 0 0 -1 0 1100)"><stop offset="0" style="stop-color:#5900ff"/><stop offset="1" style="stop-color:#f06"/></linearGradient><path style="fill:url(#a)" d="M302.5 412.2c13 30 55 19.5 61-10.5 3-13-.8-27-2-40.7-3-33 15-45 47-40.6 56 8 63-33 100.6-58.7 58-39.6 78 46 81 54 9.2 24.5 35.5 23 44-.7 26-71 94-32.5 93.5 28 1 13 1 25.5 5 37.6 8 32 68 39.5 59.4 5-1.5-6-17-12-17-12 27 9.1 43 42 33 68-8 21-39.9 43.9-13 70.7 26 26 39.8 54 25 83-55 105 48 98-36.5 188-7 8-12 22-13 29-3 17 20 28 23 17.9 5-18 16-26 16-26-17 19-13 22-22 45-12.5 32-49 12-55 57-8 33-26 40.9-57 34.9-21-.5-40 12.9-60 19-54.5 17-84-17-124-47-49-29-108 16-133-68 0 0 5 18 9.5 20.3 21 11 36-34 20.5-51.5-13-15-39-16-48-34-6-11-3-25-1.9-37.9 2-37-23-56-40.7-84.1-24-47.5 18-100 9-149-19-49-16-105 29-138.6L302.5 412z"/><path d="M302.5 412c13 30 55 19.5 61-10.5 3-13-.8-27-2-40.7-3-33 15-45 47-40.6 56 8 63-33 100.6-59 58-39.6 78 46 81 54 9.2 24.5 35.5 23 44-.7 26-71 94-32.5 93.5 28.4 1 13 1 25.5 5 38 8 32 68 39.5 59.4 5-1.5-6-17-12-17-12 27 9.1 43 42 33 68.2-8 21-39.9 43.9-13 70.7 26 26 39.8 54 25 83-55 105 48 98-36.5 188-7 8-12 22-13 29.3-3 17 20 28 23 17.9 5-18 16-26 16-26-17 19-13 22-22 45-12.5 32-49 12-55 56.6-8 33-26 40.9-57 34.9-21-.5-40 12.9-60 19-54.5 17-84-17-124-47-49-29-108 16-133-68.4 0 0 5 18 9.5 20 21 11 36-34 20.5-51.5-13-15-39-16-48-34-6-11-3-25-1.9-37.9 2-37-23-56-40.7-84-24-47.5 18-100 9-149-19-49-16-105 29-138.6" style="opacity:.6;enable-background:new"/><style>.st27{fill:#00ff90}.st28{fill:none;stroke:#000;stroke-width:10;stroke-linecap:round;stroke-linejoin:round;stroke-miterlimit:10}</style><g id="Layer_23_1_"><path d="M532 209c-68 59.6-71 20-121 36.5-19.6 10.9-14 30-9.7 39.6 11 23-51 9-69 40.3-10 18 0 42-7.5 62-9 19.6-34 35-37 52-43 48-154 7-119.1 70 6 11 32.9-6 39.1 9.1 7 17.5-39 29-21 47 18 5 21 39.9 57 63 14 20 3 51 19.4 69 36 38 46-25 41-34.3 4-39 43.9-11 22 39-23 52 11 74 36.5 57 24-9 13 39 23 50.9 19.5 37 55 12 67 12 18 1 28 22 29.8 40 6.5 63 54 46 59.1 8 15.5-34 45 49 47 59.9 11 73 69.3 42 71 17.9 3-54-3-60 2-68 18.5-31 71 13 90.8-15.5 14-19.7-31-63.5 7.9-55 94 19.4 19-101 14-120.4-9-35.5 13.9-106 46.9-122 18-9 17-35.5 7-53-9.5-16.9-24.9-30.6-31-48.9-13.5-54 22-102-36-133.3-5-3-7-9.5-3.9-14 17-26 1-66-32-71-22-3-44 8.9-66.5 6C615 247 578.5 178 532 209z" style="fill:#037bfc"/><path class="st27" d="M791 443c-67.5 31-55-40-67-56-20.6-27.5-32 18-61-4-22-21 0-40-2-62.3-2.5-26-45-40.8-18-70.8 32 6 165-35.5 109 79 51 10.8 47 73.1 39 113.9zM682 866.9c-12-47.5 13.9-40-13-89-17-30.5 29.5-75.5 47-37 28 59.3 24-22 63.9-38.8 17 26.5 32 61 24 93-33 67-86-61-48 62-6.6 34.9-49.4 10.9-73.9 9.8zM314 643.9c-11-15.9-65-50-81-29.8 48.5 44 0 68 38 90.8 43 12.1 36-47.9 43-61z"/><path class="st28" d="M641 248.9c-25 31 17 45 19.6 71.5 2 22-20 41 2 62 29 22.5 40.7-23 61 4.2 12 16-.5 87 67 56M682 866.9c-12-47.5 13.9-40-13-89-17-30.5 20.8-70 47-37 6.5 8 4 32 25 14.9 16-13 5-47 39-55.2M233 614c15-16 30.8-7 44 7 9.8 10 30 0 36 23.3"/></g><style>.st2{opacity:.6;enable-background:new}.st28,.st38{fill:none;stroke:#000;stroke-width:10;stroke-linecap:round;stroke-linejoin:round;stroke-miterlimit:10}.st38{opacity:.7882;stroke:#fff;enable-background:new}</style><g id="Layer_31"><path class="st2" d="M793 537c-1 .7-1 2-.5 3 5 10 11 35 25 30 8-2 21-13 17.9-22.4-.5-1-2-2-3-1.5C806 558 804.5 535 793 536.7zM759 811.5c6 5 26 8 25-3-5.9-7-20.6-12-21.5-26C750 772 744 803 759 811.5zM539.7 863.5s1 .5 1 .8c9.1 13.5-3 36-18 40-34 6-9.5-6-6-44 .3-5.3 22.3 2.7 23 3.2zM342 731c5 6.9-4 22-4 33 8 13 29.6-5 33-14.9 2-12-17-21-28-20.2-1 .1-1 1.1-1 2.1zM373 610.8c2 23-8 47-26 61.9-13 10.9-17.5-30.6-8-27.9 6 4.4 28-18.8 34-34zM216 550.9c-8 6-17 2.9-25 1-11 5 4 20 13.5 16 5-4 12-9.2 12-15.7-.5-.2-1.5-.2-.5-1.3zM337 473c-6-10-3-23 0-34 0-1 0-2-.6-2-9-9-23 11-19.8 20.7C318 463 338 475 337 472.8z"/><path class="st2" d="M326 392c-2 29 24 45 7 44-7 2-14 1-15 11-1.5 11-24 0-24.5-1.3C285 433 317 404.5 326 392zM429 274c-9.9-4-16-16-18-25-4-5.9-9.9 1-11 6-7 54 29.5 28 29 19zM722 283c16 21 29.5 12 40 20.7 3 4 1 9.6-1 14-3 9-13 8.9-20 4.1-14.5-5.8-22-22.2-19-38.8z"/><path class="st28" d="M347 729c53.5 5 15 86 59 102 25 9 37-19.9 54.9-11.9 23 10 19.8 40 24 60.7 10 45.5 63 29.6 58-12.8"/><path class="st28" d="M519.3 861c89-9.1 47.5 119.3 114.5 115 39-6 35-47 25-76.5-2.9-9 0-18.5 7-24.5 24.5-21 59.3 15.5 84-2.5 15-11 8.5-32.9-2-45-12-15 0-32 10-43.1"/><path class="st28" d="M790 539c53 69.8-64 71 8 194.5 6 14 11 32 11 48.5 0 32-49 47.5-61 15.8"/><path class="st28" d="M721 287c2 51 63.5 31 74 88 6 34-12 71 7 103 10 18 27 31.5 34 51 8 19-4 47-27 42.3"/><path class="st28" d="M407 290.6c-16-8-12-29.9-2-41 17-15 40.5-10 61-6 29.8 1 48.9-29.4 75-38 50-17 80.5 54.5 133 44 23-5 48-10.5 69 1 25 14 33 55 10 75"/><path class="st28" d="M428 278c-16 26.5-51 17.5-76 28.5-20 10.5-28 33-23 55 10 47-43 51-39 87.6M315 454c1.5-23 35-26 41-5 7 25-13 47 16 72.4"/><path class="st28" d="M334 476c-20-34-61-31.5-89-9.6-20 8-43-3-64 4-22 7-28 37.5-5 43.5 6.5 2 23-2 26-1 15 4 11 25-5 30-21 6-10 29 6 29"/><path class="st28" d="M216 554.5c-15 15-14 41 2 55 37 22 41 31 36 69.7-2 31 46 41 53.5 10 2-10.8-4.5-22 0-33 12-32.5 44 20 62-44.5"/><path class="st28" d="M327 647.9c25 29.7-.5 47-7 75-10 32.5 34 65 53 24.7"/><path class="st38" d="M729 262.5c9.2 4 16 13 18 22.5M554 217c12.5 2 24.5 8 34 16.4M597.1 241.8l3.3 2.9M437 255c-5.5-.9-12 .6-15.5 3.7M362 319.6c-9.2 1.9-14 10.7-16 19.1M339 449c4 1 6 6 6 9.8M308.5 470c-12-6-16-5-22-4.1M175 492c1-4 5-7 9-7.5M222 574c-4 8 0 16 4 19.9M270 672.5c-1 6 1 15 9 17.7M355 613c-3 14-13 14.5-16 16M343.5 748.5c-5-3-8.9-9-8-15.1M397 782c-1 14.5 7 28 14 30.3M501 865.9c-3 12 2 27 14.5 25.2M636 957c14-3 17-28 11-37.9M743 858.9c1-7 0-14-4-19.3M785 790.8c8-6.5 9-25 3-39.1M786 582c5-8 3-19-3-26.2M820 544c2-8.5-.6-18-6.9-24.3M757 351c18 6 22 30 21 34.7"/></g><style>.st28{stroke:#000}.st28,.st50,.st51{fill:none;stroke-width:10;stroke-linecap:round;stroke-linejoin:round;stroke-miterlimit:10}.st50{opacity:.6;stroke:#000;enable-background:new}.st51{stroke:#fff}</style><g id="Layer_19"><linearGradient id="SVGID_00000028319524900377287400000003273580435503368334_" gradientUnits="userSpaceOnUse" x1="232" y1="589" x2="336" y2="516" gradientTransform="matrix(1 0 0 -1 0 1100)"><stop offset="0" style="stop-color:#00ff04"/><stop offset=".811" style="stop-color:#00fccf"/><stop offset="1" style="stop-color:#00fbff"/></linearGradient><path style="fill:url(#SVGID_00000028319524900377287400000003273580435503368334_)" d="M278 494c-31 10.9-13 49-9.5 56 8 16-9 32.5 9.4 50.8 9 9 46 8 40.7-31-2-13-13-23-13.5-35.8-1.1-21-4.1-48-27.1-40z"/><path d="M273 498c-6.5 9-1 22 4 30.8 6 8 13 15 14 25 2 14-6 31 3 43.7 15 18 30.6-23 22.9-35-3-7-7.9-13.5-10-20.8-5-16 2-45-21-48.8" style="opacity:.5098;fill:#fff;enable-background:new"/><path class="st50" d="M274 516c9 24.5 14 39 18 63.7"/><path class="st28" d="M278 494c-31 10.9-13 49-9.5 56 8 16-9 32.5 9.4 50.8 9 9 46 8 40.7-31-2-13-13-23-13.5-36C304 513 301 486 278 494z"/><path class="st28" d="M282 526c6 17 10.5 35 14 52.8"/><path class="st51" d="M279 515c1 4 2 7 3.5 11M307 572.9c1 5 1.5 13-5 18.7"/><path class="st50" d="M264 495.9c-15.5 19-6 44 1 65 3 9-3 18-1 27 4 24 31 31 46 12.1"/></g><style>.st2{opacity:.6;enable-background:new}.st28,.st51{fill:none;stroke:#000;stroke-width:10;stroke-linecap:round;stroke-linejoin:round;stroke-miterlimit:10}.st51{stroke:#fff}.st87{fill:#ae0f45}.st92{fill:none;stroke:#fff;stroke-width:5;stroke-linecap:round;stroke-linejoin:round;stroke-miterlimit:10}</style><g id="Layer_15"><path d="M454 750c44 128 108 11 219.5 40 76 19.7 48-35-2.5-47.9-89.3 0 43 77-80.5-18.3-16 19-37.5 18.9-45.5-6-18 19.6-34 13-46 5-1-.8-3 0-3 1 0 21.2-24 27.2-42 26.2z" style="fill:#fe1767"/><path class="st87" d="M462 774c6-15 91-49 167-19 2.5-12.9-29.5-23-39-35-7 22.9-37 17-48.5-4.9-1 16-22 31.9-45 3-4 29-19 35-46 29L462 774zM647 776c4-16 23-25 38-27-16-7.9-37-5-48 9.5l10 17.5z"/><path class="st51" d="M609 748.5c5 3 9.9 7 13 12.6M627 771c.5 1 1 2 1 2.5"/><path d="M622 740c19.2 37 31-26 106 38 59-75 17-62.9-1-91-18 49.8-38 12-46 2.6 0 27.5-16 45.5-38 19.9 2 14.5-8 22.5-21 30.5z" style="fill:#0a0a0a"/><linearGradient id="SVGID_00000174579615367816726790000007026782285117530030_" gradientUnits="userSpaceOnUse" x1="599" y1="413" x2="612" y2="329" gradientTransform="matrix(1 0 0 -1 0 1100)"><stop offset="0" style="stop-color:#17dcff"/><stop offset="1" style="stop-color:#3a17ff"/></linearGradient><path style="fill:url(#SVGID_00000174579615367816726790000007026782285117530030_)" d="M453 740.5c16 23 48.5 4 43.5-21.5 19 27 42 19.8 49-9.9 9 59.6 39.3 13 46 6.9 22 55 46 .5 52-10.5 14 38 30.9-1 38-14 13 29.5 37 17 46-7.5 3 10 15.5 29 26 18 6-21-19.5-76-88.5-30.2-71 71.2-205.1-44.8-212 68.7z"/><path class="st2" d="M465 706c-1 14 4 29.9 16 38-18 8-29.6-3-30.8-8.8M518 686.9c-8 14-4 32 4 45.5-19-3-25-28-27-44.4M566 697c-4.5 12-4 26 1 38-16-5-20-26-19.8-41.5M611 700c-5 13 3 26 10 36-17.5 4-26.9-18.9-28-33.4M654 681c-2 14 5 27 14.5 36.5-16 3.5-25-14.9-27.9-28v1.1M699 656c-4.5 18 0 37 11 52-20 .5-27-30-27-46.3M734 665.5c-11.5 39.7 35 55 18 13.9"/><path class="st51" d="M676 758c9 2.5 15 9.4 21 16 0 0-.5 0-.7-.5"/><path class="st92" d="M718 673c0 6-2 11.5-4 16.8M712 695c0 .9-1 2-1 2.6M671 683c0 6-1 13-3 18.8M631 708c-.5 6-3 11-6 15.7M582 710.5c-1 4-3 7.9-6 11.3M572 725.9c0 .5-1 .9-1.5 1.2M536 704c-1 6-3 11-6 15.9M525 724s0 .6-.5.8M485 709c.5 7-1 14.5-3 21.2M479 735c0 .8-1 1.5-1 2"/><path class="st28" d="M487 688.5c-54 14-41 93-2 116 39.6 23 84-15 126-19 30.6-3 61 13 91 7.7 54-10 68-99 38.5-125-38-34.5-84 9-96 16C578 726 549.3 672 487 688.5z"/><path class="st28" d="M451 738.5c9 20 57 20 40-49.9 14 78 59 42 52 3 6 77 54 37 47.5 11.3 4 56 61 41 47-13.5 12 48 49.2 41.5 42-24 5 64 47 59 49-2.9 1 13-2 24 7 35.8 4 5.5 12 8 18 4.9"/><path class="st28" d="M614 738.5c14 8 25 22 31 37.4"/><path class="st28" d="M635 757c12-14 54.9-27 89.2 24.4"/><path d="M457 705c-34 39 3 108 51 113.5 40 3 76-30 116-27.9 43 6 84 25 115-18.6" style="opacity:.6;fill:none;stroke:#000;stroke-width:10;stroke-linecap:round;stroke-linejoin:round;stroke-miterlimit:10;enable-background:new"/></g><style>.st67{stroke:#000}.st67,.st68,.st69{fill:none;stroke-width:10;stroke-linecap:round;stroke-linejoin:round;stroke-miterlimit:10;stroke-dasharray:0,0,0,0,0,0}.st68{opacity:.6;stroke:#000}.st69{stroke:#fff}</style><g id="Layer_38"><linearGradient id="SVGID_00000080922108904315835480000004412558781754097283_" gradientUnits="userSpaceOnUse" x1="563" y1="380" x2="600" y2="634"><stop offset="0" style="stop-color:#ff0080"/><stop offset="1" style="stop-color:#90f"/></linearGradient><path style="fill:url(#SVGID_00000080922108904315835480000004412558781754097283_);stroke:#000;stroke-width:10;stroke-linecap:round;stroke-linejoin:round;stroke-miterlimit:10;stroke-dasharray:0,0,0,0,0,0" d="M435 547c-3 7-12 10.6-19.4 11-15 2-24-13-22-28 3-22.5 25-39.4 27.5-61.9 3-26 9-48 23-63.9 25-28 46-25 62-22 61 14 54 118 114 74 0 0-6 4-8 3.9-17-2-6.9-35 9-42 27-12 20-13 27.5-27 1-3 3-5 4.5-7.5 40-46 106-5 102 41.9-3 39 17 48 16 69 0 13-9 19-20 24-7 3.5-13 9-16 17-8 19-6 46-28 54.7-21 8-28-20-46-22 0 0 8 1.5 9.1 4 16 30-47 42-31.5-11.5 14-49-61.5-70.5-80-23.2-6 16-2 35.5-9.1 52-5 10.5-17 19.7-28 14-23-11.9-32-9.6-49 10-16 18-40-2-39-23.4-.5-18 8-39-5-54.7"/><path class="st67" d="M464 433c21 42 42 84 62 126.4"/><path class="st67" d="M529.3 436c-24 47.5-41 83.5-63 129.1M661.5 414.2l60.1 111M722 417c-19.7 41-36 76-58 116.8"/><path class="st68" d="M451 392.9c-29.2 19-28 57-39.2 86-9 23-29.9 45-20 70.6 7 18 22 19.6 37 12.4 8.9-4-8 36 10.5 54.5 28.5 29.4 39.6-13 64-13 12 3 25 11.5 35-.9M599.8 512c46 17 33 33 31 67.5-1.5 26 35 34 48 9.6 1 0 3 1 4 1.6 11 10 31 7 38-7.4M678 364.5c-19.2 5-29 22-39.4 37-5 8-16 9-23 15-24 18-13 39-17 47.5M459.3 435.2l63.3 126.7"/><path class="st68" d="M469 569c24-48 42-87 65-132M656.5 416c22 41 41 75 62 113.5"/><path class="st68" d="M727 420.9c-18 39.5-39.7 77-59.3 116.2"/><path class="st69" d="M720 386c7 6 13 13.5 16.5 22.2M741.2 420l-.1 3.6M753 478c3 5 5 12 5 18M716 558c-1 7-5 14-11 18.4M718.9 545.8l.6-1.5M621 439c2-5 5.9-8 10.7-9.4M512 400c7 4 14 9.1 18.5 15.6M499.5 396.7l-3-.7M409.5 541c-1.9-6-1-13 2-18 0 0 0 0 0 0v.2M416.6 512.6l1-1.6M542 570.8c0 5-2 10.7-5.5 15.1M542.9 558.6l.1-2.6M469.4 601c-2.5 3.5-7 6-11 5.5"/><path class="st68" d="M662 569c6 6 5 14 2 21.6M609.7 446c0 7 4 11 11 12.1M430 536c1 7.9-2 12-7 18"/></g><style>.st200,.st28,.st51,.st63{fill:none;stroke:#000;stroke-width:10;stroke-linecap:round;stroke-linejoin:round;stroke-miterlimit:10}.st200,.st51,.st63{stroke:#fff}.st200,.st63{opacity:.6;stroke:#000}.st200{opacity:.6392;stroke:#fff;stroke-width:20}</style><g id="Layer_28_00000173862881199793909940000014663607782932669621_"><linearGradient id="SVGID_00000158001517952996816490000013843826044820808118_" gradientUnits="userSpaceOnUse" x1="88" y1="283" x2="984" y2="696"><stop offset="0" style="stop-color:#0fe"/><stop offset=".119" style="stop-color:#00eaf0"/><stop offset=".366" style="stop-color:#00b3f3"/><stop offset=".717" style="stop-color:#005cfa"/><stop offset="1" style="stop-color:#01f"/></linearGradient><path style="opacity:.5882;fill:url(#SVGID_00000158001517952996816490000013843826044820808118_)" d="M173 747.6c7 19.5 25 35 45 39.8 15 4 31 2 45 9 17 9.2 24 30 39.3 42 21 16 49.9 12 75 19.5 32 9.9 57 39.7 91 39 22 0 43-14 65-13 29.7 2 56 32 85 22 19-6 33-29.7 47-34.3 14.9-5 42 5 63 0 23-6 36-31 58-40 20-8 44-2 64-10.9 21-10 31-36 53-44.7 18-6 52-9 44-33.5-13-42-8-70 3-107 8-43.5-25-88-15-130.7 23-101.5 24-80-19-146.8-8-11.9-12.9-25-16-38.9-13-67-7.9-52.5-72.9-108-48-68-29-71.5-116.9-87-50.5-24-57.5-49-114-17.5-42.5 17-94-21-136.5-2-14.5 6-24 20-38 28-28 16-64 8-93 23-35 19-45 66-76 91.6-25 20-64 25-79.8 54-15 27-1 63-13 92-9 21-31 35-42 55-27 52 14 77 24 120.9 2 18-7 36-1 53 4.5 14 18 24 23 37.9 7.8 26-3.2 55 8.8 87.6z"/><linearGradient id="SVGID_00000163043048985672120440000014318093901209338253_" gradientUnits="userSpaceOnUse" x1="51" y1="554" x2="924" y2="956"><stop offset="0" style="stop-color:#0fe"/><stop offset=".119" style="stop-color:#00eaf0"/><stop offset=".366" style="stop-color:#00b3f3"/><stop offset=".717" style="stop-color:#005cfa"/><stop offset="1" style="stop-color:#01f"/></linearGradient><path style="fill:url(#SVGID_00000163043048985672120440000014318093901209338253_)" d="M78 694c136 465 796 470 953 3-51-46-72-7-89.9-23-17 109.9 58 54-57 117.5-57 56.9-26 22-98 41.5-73 63-99 32-114 40-72 37.5-38 49-124 15-68-26-46 45-168-30-98-9.6-60.7-17-122.5-64.2-115-7-76.5-94-93-132.5-21 12-59.6-33-66-4C95 665 108 681 78 694z"/><linearGradient id="SVGID_00000043445372458747503830000004541462070987137703_" gradientUnits="userSpaceOnUse" x1="470" y1="914" x2="598" y2="973"><stop offset="0" style="stop-color:#ff00b7"/><stop offset=".112" style="stop-color:#ea01bd"/><stop offset=".345" style="stop-color:#b305cc"/><stop offset=".674" style="stop-color:#5c0be5"/><stop offset="1" style="stop-color:#01f"/></linearGradient><path style="fill:url(#SVGID_00000043445372458747503830000004541462070987137703_)" d="M469 947.5c9.5 15 165 18 136.9-7C576 929 489.1 918 469 947.5z"/><linearGradient id="SVGID_00000018223357218124023190000010834638643173109150_" gradientUnits="userSpaceOnUse" x1="476" y1="965" x2="582" y2="1014"><stop offset="0" style="stop-color:#f0b"/><stop offset=".112" style="stop-color:#ea01c1"/><stop offset=".345" style="stop-color:#b305cf"/><stop offset=".674" style="stop-color:#5c0be6"/><stop offset="1" style="stop-color:#01f"/></linearGradient><path style="fill:url(#SVGID_00000018223357218124023190000010834638643173109150_)" d="M476 990.9c4 17.5 131 19 113-1-24-15.9-110-14.9-113 1z"/><linearGradient id="SVGID_00000111151316455126999860000016337601658052472193_" gradientUnits="userSpaceOnUse" x1="724" y1="901" x2="763" y2="972"><stop offset="0" style="stop-color:#f0b"/><stop offset=".112" style="stop-color:#ea01c1"/><stop offset=".345" style="stop-color:#b305cf"/><stop offset=".674" style="stop-color:#5c0be6"/><stop offset="1" style="stop-color:#01f"/></linearGradient><path style="fill:url(#SVGID_00000111151316455126999860000016337601658052472193_)" d="M693.5 956c46 15 78.5 1 97-43.2-29-4.8-88.5 10.2-97 42.9z"/><linearGradient id="SVGID_00000062191081514202092070000007615225451283950997_" gradientUnits="userSpaceOnUse" x1="716" y1="924" x2="768" y2="948"><stop offset="0" style="stop-color:#0fe"/><stop offset=".119" style="stop-color:#00eaf0"/><stop offset=".366" style="stop-color:#00b3f3"/><stop offset=".717" style="stop-color:#005cfa"/><stop offset="1" style="stop-color:#01f"/></linearGradient><path style="fill:url(#SVGID_00000062191081514202092070000007615225451283950997_)" d="M736.5 962.4c46.9-6 33-29.1 25-46-4.5-4.4-75.5 1.6-25 45.6z"/><linearGradient id="SVGID_00000065065736443136728120000014217127448503288748_" gradientUnits="userSpaceOnUse" x1="343" y1="861" x2="309" y2="965"><stop offset="0" style="stop-color:#d0f"/><stop offset=".127" style="stop-color:#c802ff"/><stop offset=".391" style="stop-color:#9106ff"/><stop offset=".765" style="stop-color:#3a0dff"/><stop offset="1" style="stop-color:#01f"/></linearGradient><path style="fill:url(#SVGID_00000065065736443136728120000014217127448503288748_)" d="M276 876.8c23 69.8 104 63.5 107 56.9-12-45.7-62-78.7-107-56.9z"/><linearGradient id="SVGID_00000080185020729692786180000013247338603687441302_" gradientUnits="userSpaceOnUse" x1="299" y1="890" x2="362" y2="919"><stop offset="0" style="stop-color:#0fe"/><stop offset=".119" style="stop-color:#00eaf0"/><stop offset=".366" style="stop-color:#00b3f3"/><stop offset=".717" style="stop-color:#005cfa"/><stop offset="1" style="stop-color:#01f"/></linearGradient><path style="fill:url(#SVGID_00000080185020729692786180000013247338603687441302_)" d="M304 895.5c-17 26 44 59.9 56 26 19.5-28-40.8-67-53-32l-3 6z"/><path class="st28" d="M173 748c7 19.5 25 35 45 39.8 15 4 31 2 45 9 17 9.2 24 30 39.3 41.7 21 16 49.9 12 75 19.5 32 9.9 57 39.7 91 39 22 0 43-14 65-13 29.7 2 56 32 85 22.1 19-6 33-29.7 47-34 14.9-5 42 5 63 0 23-6 36-31 58-40 20-8 44-2 64-10.9 21-10 31-36 53-45 18-6 52-9 44-33.5-13-42-8-70 3-107 8-43.5-25-88-15-130.7 23-101.5 24-80-19-147-8-11.9-12.9-25-16-38.9-13-67-7.9-52.5-72.9-108-48-68-29-71.5-116.9-87.4-50.5-24-57.5-49-114-17.5-42.5 17-94-21-136.5-2-14.5 6-24 20-38 28-28 16-64 8-93 22.7-35 19-45 66-76 92-25 20-64 25-79.8 54-15 27-1 63-13 92-9 21-31 35-42 55.3-27 52 14 77 24 120.9 2 18-7 36-1 53 4.5 14 18 24 23 37.9 7.8 26-3.2 55 8.8 87.6z"/><path class="st28" d="M943 675c17 19 39.7-17 64 4 7 6 10 16.5 21 15.9M100 679c-14-14 3-39.4 20.6-29.9 15 8 24 21 43 13.5"/><path class="st28" d="M112 674.9c-11 8-24 14-37 16.8M261 880.9c56-30 115 4 126 64.6"/><path class="st28" d="M273 877c14 43 66 73 109 57.4M804 915c-46-16-99 9-122 51.4"/><path class="st28" d="M791 912c-15 49-62.5 59.9-99.7 44.2M612 945.5c-2-20.5-143.9-21-145 3 0 14.5 147 18.5 145-3zM592 993c.9-15-118-25-118-1 1 13 117 21 118 .8z"/><path class="st28" d="M717 929.6c-1 12 5 24 14 31.9M757 912c9 7 15 18 16 29.8M320 873c-11 9.6-19 24-20 38.5M365 898c3.5 12.9-8 33.9-20 39.3"/><path class="st200" d="M844.5 257c14 7 24 20 27 35.1M874.7 318.9l.6 6.5M921 409.9c8 12 10.5 29 5 42.7M741 154c14 4 27 14 34 26.4M633 115c12 0 23 5 31 13.5M917 575c8 17 11 36 9.1 54.3M917.5 656.2l-1.3 7.3"/><path class="st63" d="M171 740c4 61 68 53 79 58 47 24 36 60.5 105 60.5 40 2 64 33 99 44 29 6 58-12 88-9 27 3 52 26 79 18 49.8-25 16-37.5 107.5-34 23 1 36-27 55-37.1 46-18 67 5 103-45 24-32 65-12 62-45.7M266 880c19.5 47 66 72 116 59.1M469 950c12 21 132 23 143-1.2M476 994c15 21 99.2 23 115 2.6M687 964c48 15 89.2 1 109.5-46.7M112 674.9c-8 3-16.5-6-15-16.8"/><path class="st51" d="M986 688c6-.5 12 3 15 8.2M1010.1 703.2l2.8 1.5M111 661c4 0 8 1 11 4.3M131.3 672.9l4.1 1.2M352 900.5c1 5-.5 9.6-3 13.7M342.6 923l-1.9 2.4M750 925c4 3 7 7 9 11.9M545 942c12-1 24 0 35 2.7M539.8 990.5c7.9-1 15.9 0 24 1.5"/></g><circle cx="550" cy="550" r="500" style="fill:none;stroke:#000;stroke-width:10;stroke-linecap:round;stroke-linejoin:round;stroke-miterlimit:10"/></svg>