<svg version="1.1" id="Layer_1" xmlns="http://www.w3.org/2000/svg" x="0" y="0" viewBox="0 0 1100 1100" style="enable-background:new 0 0 1100 1100" xml:space="preserve" xmlns:xlink="http://www.w3.org/1999/xlink"><style>.st17{fill:none;stroke-width:10;stroke-linecap:round;stroke-linejoin:round;stroke-miterlimit:10;stroke:#b5d7fc}</style><g id="clouds"><circle cx="549.5" cy="550" r="500" style="fill:#48aaf1"/><path d="M609 832.7c17 31 34 34 65 19.5 13 7.5 28 11 44 11.2-4 35.8 47 49.8 59 15.4 3.5 5 9.6-.1 40 7.4 48.5 12 55-70 2-66.1-5-11-14-20.8-25-26.3 3-18 12-35 13-53-2-21-17-35-38.5-24.3-9-8-22-8.5-36-9.1 14-23-67-49.5-62 19.7-14 2-28 9.5-37 21.8C575.8 702 534 836 609 832.7zM311 906c5 16 21 27 38 26.3 5 9 33 46 56 20.9 47 22 63-31.5 21-52.4-6-18-21-30-38-39.6 5-34-35-42-53-15.9-59-31.3-88 58.2-24 60.7zm68-193.5c6 33-38 52-64 37.3-9.8 21-39.7 26-56 10.3-9 6-17 10.6-25.5 14.8 5 37.5-32 62-50 20-6 4-14 5-21 3.1-5 11-13 22-25 25.5-18-2-88-142-69-177.7 12-22 37-30.1 59-17.3 2.5-13 8.5-25 17-33.6-7-41.5 33-58 53.5-21.3 22 1 38 15 48 32.9 14-9 86-56 108 9.2 20.7-9.8 33-8 52 4.3 37-9 55 42.5 16 52.5-17 3.3-1 20.5-43 40zM215 322.3c29 36 85-24 51-52.4 25-34-15-60.9-42-32.7-.7-18-12-34-29-38.1-27.5 25-51 55-69 88 8 12 22 19 37 18.6 5 22.3 34 31.3 52 16.6zm396-190.9c-36 17-16 83.5 42 51.9 25 28 59.6-38 23-65.6-1-27.7-65-66.7-65 13.7zm378 181.5c-20-10-42-5-61 7.2-15-13-37-3-47 11.7-14-22.5-70.7-16-32 39.6-8 12-12 26-7 41.3-42 11-29 65 6 77.1 9.9 3 39 56 70 9.9 9.7 6 22 7 33 2.7 5.8 12 24 10 33 19.7 14 23 41 25.5 65 18.1 0-79.2-24-157.2-60-227.3z" style="fill:#e8f4fe"/><path d="M695.5 698.2c-5 4-8 10.6-9 17M688 729v3m-104 51c0 9 2 17 6 25m-.1-42 4.1-4m39.5 83.6c7 4 15 4 22 0M666 839l1.5-2m62.5 30.5c.5 7 6 13 13 15m13 .5 2.5-1m71.5-47.2c6.5 2 11 9 12 16m-2 13.8c-.1 1 0 2-1 3m-44-134.8c2 5 1 11-1.5 16M784 757l-2 1m-32-37.5c3 1 6.5 3 8.5 6M289 866.1c-5 15 2 23 13 26m-6-37c0-1 1-2 2-2m75-9.5c3 3 4 9 3 13m-7 10.4-2 1.5m60 47.9c5 3 9.7 8 10 14m-7.1 15.1c1 0 2-1 3-2m-72.4-14.9c2 6 6.5 11.5 12 15m27-60.2c3 2 5 4 6.5 7m-94-294.6c-14.5-2-29.6 3-40 13m55-8.3c1 0 3 1 4 2m84 30.1c5 1 10 3 12 8m0 11.4-1 4m-36.2 34.7c-5 4-11 6-17 7m-7.8 30.6c-4 5-9 8-15 10m-11 3.7h-3m-70 3c1 6 7 11.5 13 12m12-2h2m-72 31.4c-1 5-3 10-7 13m-40-232.1c5 3 9 9 9.8 15m28.2 7.6c5 3 9.9 8 13 13m-123 33.4c6 0 12 2.5 16.5 6m8.5 9.7 2 3m828-332.9c7-.5 13 1 19 4m-55 11.2c0-5-3-9-8-10M861 361c-6-1.5-11-6-13-12m-18.5 101c2 12.5 14.5 22 26 24m-25.6-38.9c0-2 2-3 3-4m66.8 51.8c3 5 2 12-2 16m-16.7 5.2c1 1 2 1 3 1m86-1.4c5 2.5 10.5 3 15.8 2m20.2 21.5c5 4 12 4 19 4M853 400.1c-2-4-1-9 1-13M671 131c7 7 11 18 8 28m-6 11.9c-1 1-1 2-2 3m-56 6.1c8 3 16-1 21-7m6-10.1c0-1 .7-2 .9-3M641 96.3c-9 2-15.5 10.5-15 19.5m1.5 12.2.5 1.6m-430 86.6c5 5 8 11 9 18m3.8 11.8.2 3m49-5.9c2 3 3 8 1 11m3 45.8c-3 14-19.8 25-33 16m-6-9.6c-.9-.7-1-2-1-3m-33 14.8c-5-1-9-4-11-8.5m-5-10.8c0-1-.6-2-.7-3m-24.6-3.5c-4-1-7-4-9.5-7m7.8 506.8c-2 5-6 9-11 12" style="fill:none;stroke:#fff;stroke-width:10;stroke-linecap:round;stroke-linejoin:round;stroke-miterlimit:10"/><path class="st17" d="M62.5 658.3c7-44 62-48 81-9.6"/><path class="st17" d="M128.5 627.7c-2-13 4-26 15-33m15.5 11.2c-26-10-18-52 8-54.4 23-2 41 30.1 27 49"/><path class="st17" d="M197 574.1c22-2 42 19 50 38"/><path class="st17" d="M239 627.8c26-69.6 136-57 111.5 15"/><path class="st17" d="M355 617.9c10.9-14 39.7-11 48 5"/><path class="st17" d="M395 634.5c5-25.5 47-13 48 8.3 1 26-27 40.8-45 24"/><path class="st17" d="M417 674.2c-9 23-33 42-58 36"/><path class="st17" d="M379 711c9.7 33-38 56.5-63.5 38"/><path class="st17" d="M310.5 720.6c17 26-10 59.6-41 48.2-16-6-22-32-12-46"/><path class="st17" d="M256 756.9c-5.5 8.5-14 15-23 19"/><path class="st17" d="M219 767.6c34 12 3 63-22 48.2-8-5-14-14-14-23"/><path class="st17" d="M192 782.3c-6 9.6-16 16-27 17m-3-11.8c0 16-12 31.5-27 36.5m199.5 20.7c-41-21.5-63 13-60.5 33.2 3 25.5 37 39.9 54 17.5"/><path class="st17" d="M310.5 907.9c6 15 21 25 37 25"/><path class="st17" d="M348 921.2c-2 29 32 49 56 34m-66-85.7c-14-16 5.5-39 24-40.8 29.9-3 39 36.5 13 49"/><path class="st17" d="M388 864.5c18 3 34 17 39.5 35m-27.7 41.3c8 23 42 24 51 .7 8-22-23-49.9-43-34m201.2-73c14 37 69 37 73-5"/><path class="st17" d="M675 850.7c10 11 27 15 41 10.9m13-13.6c-21 13.5-9.6 46 13 49.7 25 7 47-23 23-39m12.5 18.3c7 4.5 16 5 23 2"/><path class="st17" d="M795 867.6c9.8 31 53 28 60.9-2.9 10-29.9-26-59-49-34"/><path class="st17" d="M818 821.3c-2-14-15-25-29-25"/><path class="st17" d="M777 805.6c13-6 22-19 23-33m-182 52.2c-39 30-64-37-43-64.8 37-48 70-1 69 17"/><path class="st17" d="M634 751.8c2-15 24-25 38-22"/><path class="st17" d="M682 746.8c-20-24-9-65 25-65.4 26.5-.5 35 34 21 53"/><path class="st17" d="M736 709c16-6 35 5 38.5 22"/><path class="st17" d="M782 773.1c47-9 29.8-78.5-14-55m92.1-225.7c9 52 89 17 43-24"/><path class="st17" d="M918 495c7 11 22 14 34 9m-3-11.8c4.5 19.9 27 32 46 26m-12 4.1c8 26 41.5 27 63 18m-173-52.6c-19.9 14-48.5-8-56-27.7-12-30.1 19-60 47-41"/><path class="st17" d="M844 410.8c-7-13-4-30 7-39"/><path class="st17" d="M868 375.5c-26 2-46-34-25-51.6 13-9 35-5 39 12"/><path class="st17" d="M889 352.4c-13-13-2-36 15-38.5 31.5-4 36 26.5 25 36m2-30c10.6-16 39.5-15.8 55-7m-859-23.8c7 12 22 19 35.5 16"/><path class="st17" d="M161 291.3c-4 29.6 32.5 54 53 28"/><path class="st17" d="M212 308c1 23 30 32 47 19.3 22.5-15 28-57-6-60m14-.2c27-28-19.6-58-40.9-29m-.6 12.7c-2-19-7-44-28-51M611 131.6c-21 5-23 33-13 48.8 17 27 60.1 11 57.5-20"/><path class="st17" d="M651 180.9c11 17 34 5 39-10.8 12-26-7.5-59-37-59"/><path class="st17" d="M621 141.6c-38-46.5 44-87 52-28"/></g><path d="M532 209c-68 59.6-70.9 20-120.8 36.5-19.6 10.9-14 30-9.7 39.6 11 23-50.8 9-69 40.3-10 18 0 42-7.5 61.8-9 19.6-34 35-37 52-43 48-154 7-119 70.4 6 11 33-6 39 9.1 7 17.5-39 29-21 46.7 18 5 20.7 39.9 57 63 14 20 3 51 19 69.1 36 38 46-25 41-34.3 4-39 44-10.6 22 38.7-23 52 11 74 36.5 56.6 24-9 13 39 23 50.9 19.5 37 55 12 67 12 18 .7 28 22 29.8 40.3 6.5 63 54 46 59 8 15.5-34 45 49 47 59.9 11 73 69 42 70.8 17.9 3-54-3-60 2-68.3 18.5-31 71 13 90.8-15.5 14-19.7-31-63.5 8-55.4 94 19 19-100.7 14-120.4-9-35.5 14-106 47-121.7 18-9 17-35.5 7-52.8-9.5-17-25-30.6-31-48.9-13.5-54 22-102-36-133.3-5-3-7-9.5-4-14.4 17-26 1-66-32-71.4-22-3-44 9-66.5 6.3C615 247 578.5 178 532 209z" style="fill:#fff"/><path d="M747 800c4 6 53 38 60.9-18.1-5-193-236-16-125 82.8 16 0 92 35 72.5-20.9-4.4-14-15.4-28.3-8.4-43.8zM338 671c77.5-19.8 116 97 49 135-5.5-19-4-41-15-57.8-20 37-61 5-49.7-27C328 707 333 692 338 671zm151-49.2c-74 49 120.7 156 145 62 18-69.6-5-97-62-133.3-49-31.5-132 36-87 57.8 7 3.7 9 10.2 4 13.5zm233-142.7c-57 44 55 146 86.5 81C836 504 776 437 722 479.1zM544 207c-52 184 218 237.5 232 132.3-9-2-17.5-6-24-12.3 30.7-17 14-77-19-83-26-5-49 6-75 6.1-36.5 2.9-42-45.1-114-43.1zM233 471.6c-2 94 70.6 142 148 86.5 63-45 19-195-52.5-214.6-3 10.8 2 22 1 33.7-20.5 32-44 73-47 73-16.5.8-33.5 7.8-49.5 21.4z" style="fill:#3d3d3d"/><style>.st40{fill:none;stroke:#000;stroke-width:10;stroke-linecap:round;stroke-linejoin:round;stroke-miterlimit:10}.st98{opacity:.6;enable-background:new}</style><g id="Outline"><path class="st98" d="M793 537c-1 .7-1 2-.5 3 5 10 11 35 25 30 8-2 21-13 18-22.4-.5-1-2-2-3-1.5-26 12-28-11-39-9.4v.3zm-34 274.5c6 5 26 8 25-3-6-7-20.6-12-21.5-26C750 772 744 803 759 811.5zm-219.3 52s1 .5 1 .8c9 13.5-3 36-18 40-34 6-9-6-6-44 .3-5.3 22.3 2.7 23 3.2zM342 731c5 7-4 22-4 33 8 13 29.6-5 33-14.9 2-12-17-21-28-20.2-1 .1-1 1.1-1 2.1zm31-120.2c2 23-8 47-26 61.9-13 10.9-17.5-30.6-8-27.9 6 4.2 28-18.8 34-34zm-157-59.9c-8 6-17 3-25 1-11 5 4 20 13.5 16 5-4 12-9 12-15.7-.5-.2-1.5-.2-.5-1.3zM337 473c-6-10-3-23 0-34 0-1 0-2-.6-2-9-9-23 11-19.8 20.7C318 463 338 475 337 472.8v.2z"/><path class="st98" d="M326 392c-2 29 24 45 7 44-7 2-14 1-15 11-1 11-24 0-24.5-1.3C285 433 317 404.5 326 392zm103-118c-9.9-4-16-16-18-25-4-6-9.9 1-11 6-7 54 29.5 28 29 19zm293 9c16 21 29.5 12 40 20.7 3 4 1 9.6-1 14-3 9-13 9-20 4.1-14.5-5.8-22-22.2-19-38.8z"/><path class="st40" d="M347 729c53.5 5 15 86 59 102 25 9 37-19.8 55-11.9 23 10.1 19.6 40 24 60.7 9.6 46 63 29.6 58-12.8"/><path class="st40" d="M519 861c89-9 47.5 119 114.5 115 39-6 35-47 25-76.5-3-9 0-18.5 7-24.5 24.5-21 59 15.5 84-2.5 15-11 8-33-2-45-12-15 0-32 10-43"/><path class="st40" d="M790 539c53 69.8-64 71 8 194.5 6 14 11 32 11 48.5 0 32-49 47.5-61 16"/><path class="st40" d="M721 287c2 51 64 31 74 88 6 34-11.5 71 7 103 10 18 27 31.5 34 51 8 19-4 47-27 42"/><path class="st40" d="M407 290.6c-16-8-12-29.9-2-41 17-15 40.5-10 61-6 29.8 1 49-29 75-38 50-17 81 55 133 44 23-5 48-11 69 1 25 14 33 55 10 75"/><path class="st40" d="M428 278c-16 26.5-51 17.5-76 28.5-20 10.5-28 33-23 55 10 47-43 51-39 88m25 4.5c1.5-23 35-26 41-5 7 25-13 47 16 72"/><path class="st40" d="M334 476c-20-34-61-31.5-89-9.6-20 8-43-3-64 4-22 7-28 37-5 43.5 6.5 2 23-2 26-1 15 4 11 25-5 30-21 6-10 29 6 29"/><path class="st40" d="M216 554.5c-15 15-14 41 2 55 37 22 41 31 36 69.7-2 31 46 41 53.5 10 2-10.8-4-22 0-33 13-32 44 20 62-44.5"/><path class="st40" d="M327 647.9c25 29.7-.5 47-7 75-10 32.5 34 65 53 25"/><path d="M729 262.5c9 4 16 13 18 22.5m-193-68c12.5 2 24.5 8 34 16m9 9 3 3m-163 10c-5.5-.9-12 .6-15.5 4M362 319.6c-9 2-14 10.7-16 19M339 449c4 1 6 6 6 9.8M308.5 470c-12-6-16-5-22-4M175 492c1-4 5-7 9-7.5m38 89.5c-4 8 0 16 4 19.9m44 78.6c-1 6 1 15 9 18m76-77.5c-3 14-13 14.5-16 16m4.5 119.5c-5-3-9-9-8-15M397 782c-1 14.5 7 28 14 30m90 53.9c-3 12 2 27 14.5 25M636 957c14-3 17-28 11-38m96-60.1c1-7 0-14-4-19m46-49.1c8-6.5 9-25 3-39M786 582c5-8 3-19-3-26m37-12c2-8.5-.6-18-7-24m-56-169c18 6 22 30 21 35" style="opacity:.7882;fill:none;stroke:#fff;stroke-width:10;stroke-linecap:round;stroke-linejoin:round;stroke-miterlimit:10;enable-background:new"/></g><defs><style>.zac-4{fill:none;stroke-linecap:round;stroke-linejoin:round;stroke-width:10px;stroke:#000}</style></defs><path d="M497.5 766.8c-11.6 118.6 226.7 117.7 213-1.9Z" style="fill:#ff0059"/><path d="M501.5 776.7c58 34.9 68.2-20.3 116.4-3.9" style="stroke-linecap:round;stroke-linejoin:round;stroke-width:10px;stroke:#660024;fill:none"/><path d="M710.8 767.7c-15.5 13.1-45.4-1-55.8 13.3-4.6 6.4-3.8 13.2.4 20.5-9.7-4.2-18.8-13-24.8-22.6 4.9-10.2 63.2-17.4 80.2-11.2Z" style="fill:#660024"/><path d="M591.5 759.8a117.5 117.5 0 0 1 36.8 18.7l17.9-13.1a143.7 143.7 0 0 1-39-27.9c-5.9 6.8-12.4 13.5-15.7 22.3Z"/><path class="zac-4" d="M497.5 766.8c-11.6 118.6 226.7 117.7 213-1.9"/><path class="zac-4" d="M587.2 761.2c25.3 5.5 48.6 20.8 64.6 42.2"/><path d="M613.4 727.7c-85 131.8-186.8-17.3-157.3-65.4 16 36.8 60.9 42.3 94.1 33.4 29.4-7.8 41.6-35.6 58.8-35 20 .6 40 21.1 61.7 26.2 35.3 8.3 68.4-11.4 83.4-46.9 23 48.4-11.4 113.5-58.8 125.2-32 7.9-64.5-2.7-87.7-26.2" style="fill:#c97600;stroke:#000;stroke-linecap:round;stroke-linejoin:round;stroke-width:10px"/><path class="zac-4" d="M629.6 779.5a40.9 40.9 0 0 1 21.7-13.9"/><path d="M611.7 675.4a55.8 55.8 0 0 1 20.4 10.1m10.1 6 2.8 1.6m-57.8 43.4a60.1 60.1 0 0 1-28 23.6m-14.7 3.5-4.3-.2m204.4-70.3c-4.1 14.1-9.8 24.8-18.5 33.1m-10.5 10.3-3.4 2.5m-105.9 44.1c9.9 2 17.6 9.3 24 16.7m7.9 10.7 1.6 2.7" style="stroke:#fff;fill:none;stroke-linecap:round;stroke-linejoin:round;stroke-width:10px"/><path d="M450.9 662.3c-14.3 40.4 8.3 83 40.5 108.3-4 99.8 155.8 120.9 203.8 49m-91.1-158.3c-24.3 2.6-33.6 26.7-52.7 34.3m201.8-56.5c-11.4 19.8-27.4 35.9-50.4 47.5m-89.4 41.1c2.2 12.1 8.8 20.3 15.9 27.8" style="opacity:.6;stroke:#000;fill:none;stroke-linecap:round;stroke-linejoin:round;stroke-width:10px"/><style>.st40,.st68{fill:none;stroke-width:10;stroke-linecap:round;stroke-linejoin:round;stroke-miterlimit:10;stroke:#000}.st68{opacity:.6;enable-background:new}</style><g id="trippy_monocle"><path class="st68" d="M478 416c-98.5 54-52 295 75 229m120-263c-24 5-51 30.5-54 56m142 120c-1 25-19.9 49-43.5 57M674 420c-62 49.7-14 226 41 157"/><path class="st68" d="M515 446.9c-32.5 32-26 103-10.5 143 9 22 38 29 41.5 1"/><path d="M687 417c-49 19 1 94 40 65 18-17-11-81.5-37-67.5 1-.5 1-2-3 2.5zm-171 33.5c-34 25 4 86 38.5 55C567 465 536 433 516 450.5z" style="fill:#fff"/><path class="st40" d="M525 445c-43 8-36 170.5 7 159 41-11 39-168-7-159.4v.4z"/><path d="M503 490.6c-27 129 68 160 58 12-34 27.2-51-8.6-58-12zM661 449c-47 176 96 182 72 28.9-33 23.1-57 1.6-72-28.9z"/><path class="st40" d="M504.5 467c-5.5 32 23 63 54 39M686 416c-63 33-38 186 14 170.5C755 571 744 386 686 416z"/><path class="st40" d="M666 437c-6 33 37 63 66 42m-107-39.2c6-25 25-46.5 50-54M757 557c-8.5 29-19 44-43 54"/><linearGradient id="SVGID_00000171696356865888095910000012114362784109113733_" gradientUnits="userSpaceOnUse" x1="431.024" y1="881.903" x2="597.039" y2="881.903" gradientTransform="matrix(1 0 0 -1 0 1410)"><stop offset="0" style="stop-color:#00ff62"/><stop offset="1" style="stop-color:#009dff"/></linearGradient><path style="opacity:.7216;fill:url(#SVGID_00000171696356865888095910000012114362784109113733_);enable-background:new" d="M487 413.5c-78 38-75 218 17 237 131 27.5 124-305.5-17-237z"/><path d="M537.5 423c17 11 27 32 33.5 51m3 18v7m-10 109c-6 12-17 22-30 27" style="fill:none;stroke:#fff;stroke-width:10;stroke-linecap:round;stroke-linejoin:round;stroke-miterlimit:10"/><path class="st40" d="M508 404c-109 26-102 253 17.5 248 104.1-4 95.5-275-17.5-248z"/></g><defs><linearGradient id="zbg" x1="481.09" y1="66.55" x2="556.35" y2="408.14" gradientUnits="userSpaceOnUse"><stop offset="0" stop-color="#e100ff"/><stop offset=".18" stop-color="#e600dc"/><stop offset=".57" stop-color="#f10084"/><stop offset="1" stop-color="#ff001e"/></linearGradient><linearGradient id="zbg-2" x1="535.58" y1="186.28" x2="505.68" y2="294.23" gradientTransform="rotate(13.2 524.84 232.682)" gradientUnits="userSpaceOnUse"><stop offset="0" stop-color="#00fff2"/><stop offset="1" stop-color="#000dff"/></linearGradient><linearGradient id="zbg-3" x1="371.17" y1="124.15" x2="419.66" y2="250.85" gradientUnits="userSpaceOnUse"><stop offset="0" stop-color="#e100ff"/><stop offset="1" stop-color="#ff001e"/></linearGradient><linearGradient id="zbg-4" x1="580.35" y1="88.56" x2="629.68" y2="207.06" xlink:href="#zbg-3"/><style>.zbf-7{fill:none;stroke-linecap:round;stroke-linejoin:round;stroke-width:10px;stroke-dasharray:0 0 0 0 0 0;stroke:#000}</style></defs><path d="M327.9 385.8c-4.4 13.7-18.2 24-28.6 35.7-27.5 3.8-47-19.7-47.4-47-.3-20.7 3.9-39.7-6.5-59.6 20.7 8.3 15.9-10.5 17.7-24.3 5.7-41.6 31.7-62 4.3-106.2 21.5-1.1 66.7 69.5 72.3 30.5 25.7 8.6 31.4 46 72.2 29.4a45.3 45.3 0 0 0 23-21.2c13.8-27.2-15.8-33-9.3-52.2 11.3 12.6 43.8-2.5-5.9-75.5 46-3.6 107.6 64.6 104.1 18 26 15.2 15 35.5 46.6 53.1 9.1 5 13.4 15.8 21.2 22.7 39.3 35.2 74.7-18.2 48.3-54.5 27.2 4.8 2.4-40.7-7.9-47.2 72.7 11.8 84.4 120.9 108.1 76 6.5 8.1 6.3 19.5 10.1 29.1 6 15.4 21.5 25 30 39.2 5.8 9.7 8.1 21.3 13.6 31.2 7.8 17.1 31.2 26.8 38.4 45.4 10.5 27.2-15.2 48-38.6 58-5.9-18.6-21.9-31.6-42.9-38-142.9-4.6-286.5 14.4-422.8 57.4Z" style="fill:url(#zbg)"/><ellipse cx="523" cy="231.8" rx="26" ry="59.5" transform="rotate(-13.2 524.893 232.398)" style="fill:url(#zbg-2)"/><path d="M546.8 260.6c16.7-2.9-6.8-90.3-38.7-85-14 9.9-29.4 101.8 38.7 85Z" style="fill:#fff;opacity:.36"/><path d="M425.5 175.4a15.8 15.8 0 0 0 16-5.8c-11.9-5.8-14.9-21.4-30.8-25.4-1.8 26.7-31.6-8-51.9-9.5 22 27.5 17 66.2-.4 56.1.6 10.2-.6 20.4-2.7 31.2 24.8 47.1 81.5 20.9 82.3-8.5.4-13.5-12.2-25.6-12.5-38.1Z" style="fill:url(#zbg-3)"/><path d="M646.7 147.7c-16.1 12-20.1-21.1-27.6-24.6-17.8 22.9-17.7-30.9-43.4-27.3 8.7 7.6 17 46.4-3.4 35.8a56.1 56.1 0 0 1-2.5 31.8c55.9 74.3 86.7 14.4 76.9-15.7Z" style="fill:url(#zbg-4)"/><path d="M425.5 175.4a15.8 15.8 0 0 0 16-5.8c-11.9-5.8-14.9-21.4-30.8-25.4-1.8 26.7-31.6-8-51.9-9.5 22 27.5 17 66.2-.4 56.1.6 10.2-.6 20.4-2.7 31.2 24.8 47.1 81.5 20.9 82.3-8.5.4-13.5-12.2-25.6-12.5-38.1Zm221.2-27.7c-16.1 12-20.1-21.1-27.6-24.6-17.8 22.9-17.7-30.9-43.4-27.3 8.7 7.6 17 46.4-3.4 35.8a56.1 56.1 0 0 1-2.5 31.8c55.9 74.3 86.7 14.4 76.9-15.7Z" style="opacity:.39"/><path class="zbf-7" d="M789.6 327.5c-155.1 0-335.8 7.5-492.5 69.8"/><path class="zbf-7" d="M327.9 385.8c-4.4 13.7-18.2 24-28.6 35.7-27.5 3.8-47-19.7-47.4-47-.3-20.7 3.9-39.7-6.5-59.6 20.7 8.3 15.9-10.5 17.7-24.3 5.7-41.6 31.7-62 4.3-106.2 21.5-1.1 66.7 69.5 72.3 30.5 25.7 8.6 31.4 46 72.2 29.4a45.3 45.3 0 0 0 23-21.2c13.8-27.2-15.8-33-9.3-52.2 11.3 12.6 43.8-2.5-5.9-75.5 46-3.6 107.6 64.6 104.1 18 26 15.2 15 35.5 46.6 53.1 9.1 5 13.4 15.8 21.2 22.7 39.3 35.2 74.7-18.2 48.3-54.5 27.2 4.8 2.4-40.7-7.9-47.2 72.7 11.8 84.4 120.9 108.1 76 6.5 8.1 6.3 19.5 10.1 29.1 6 15.4 21.5 25 30 39.2 5.8 9.7 8.1 21.3 13.6 31.2 7.8 17.1 31.2 26.8 38.4 45.4 10.5 27.2-15.2 48-38.6 58-5.9-18.6-21.9-31.6-41.5-38.4"/><path class="zbf-7" d="M354.9 221a88.1 88.1 0 0 0 3.5-30.2c17.4 10.1 22.4-28.6.4-56.1 20.3 1.5 50.1 36.2 51.9 9.5 15.9 4 18.9 19.6 30.1 24.2m128.5-5.3a51 51 0 0 0 3-31.5c20.4 10.6 12.1-28.2 3.4-35.8 25.7-3.6 25.6 50.2 43.4 27.3 7.5 3.5 11.5 36.6 27.6 24.6"/><ellipse class="zbf-7" cx="523" cy="231.8" rx="26" ry="59.5" transform="rotate(-13.2 524.893 232.398)"/><path d="M294.2 399a20.3 20.3 0 0 1-1.7 21.7c12.3-4 26.2-16.8 26.2-30.6M794 328.5c-2.5 13.6 8.8 21 23.2 23.8-21.6 30.1-46.6-14.9-46.7-22.4" style="opacity:.6"/><path d="M760.3 332.1c-142.4 7.3-296.6 11.6-434.3 61.5m176.8-215.8c-29.8 22.8-4 139.4 38.2 109.8" style="opacity:.6;stroke:#000;fill:none;stroke-linecap:round;stroke-linejoin:round;stroke-width:10px;stroke-dasharray:0 0 0 0 0 0"/><path d="M515.7 190.5c7.4 7.6 11.6 17.7 15 27.7m3.1 12.7.7 4M671 125.1a102.2 102.2 0 0 1 16.8 22.6m10.3 15.8 2.2 3.9m53.2 58.2c9.8 5.9 13.9 16.1 17 25.5M448.3 114.6a79.5 79.5 0 0 1 26.9 14m12.3 6 3 1.8m68.6 39.9a39.1 39.1 0 0 1 13.4 13.4m-293.3 98.7a57.2 57.2 0 0 1 5.8-25.7m-9.7 41.4-.1 2.5m-7.6 55.8a38 38 0 0 0 1.7 24.2m4.8 12.8 1.8 2.1m528.9-103.9a28.7 28.7 0 0 1 12 19.3m.5 13.2-1.1 2.1" style="stroke:#fff;fill:none;stroke-linecap:round;stroke-linejoin:round;stroke-width:10px;stroke-dasharray:0 0 0 0 0 0"/><circle cx="550" cy="550" r="500" style="fill:none;stroke:#000;stroke-width:10;stroke-linecap:round;stroke-linejoin:round;stroke-miterlimit:10"/></svg>